<svg height="512" viewBox="0 0 512 512" width="512" xmlns="http://www.w3.org/2000/svg"><g id="flat"><path d="m392 424h-304v-32h-16v-344h232 88z" fill="#683b0d"/><path d="m360 392h-288v-368h232v56h56z" fill="#fbb540"/><path d="m72 112a32 32 0 0 1 0-64 8 8 0 0 1 0 16 16 16 0 1 0 15.5 20.006 8 8 0 0 1 15.5 3.988 31.983 31.983 0 0 1 -31 24.006z" fill="#cbcbcb"/><path d="m72 192a32 32 0 0 1 0-64 8 8 0 0 1 0 16 16 16 0 1 0 15.5 20.006 8 8 0 0 1 15.5 3.988 31.983 31.983 0 0 1 -31 24.006z" fill="#cbcbcb"/><path d="m72 272a32 32 0 0 1 0-64 8 8 0 0 1 0 16 16 16 0 1 0 15.5 20.006 8 8 0 0 1 15.5 3.988 31.983 31.983 0 0 1 -31 24.006z" fill="#cbcbcb"/><path d="m72 344a32 32 0 0 1 0-64 8 8 0 0 1 0 16 16 16 0 1 0 15.5 20.006 8 8 0 0 1 15.5 3.988 31.983 31.983 0 0 1 -31 24.006z" fill="#cbcbcb"/><g fill="#d18d28"><path d="m312 120h-176a8 8 0 0 1 0-16h176a8 8 0 0 1 0 16z"/><path d="m312 168h-176a8 8 0 0 1 0-16h176a8 8 0 0 1 0 16z"/><path d="m312 216h-176a8 8 0 0 1 0-16h176a8 8 0 0 1 0 16z"/><path d="m312 264h-176a8 8 0 0 1 0-16h176a8 8 0 0 1 0 16z"/><path d="m360 80h-56v-56z"/><path d="m200 312h-64a8 8 0 0 1 0-16h64a8 8 0 0 1 0 16z"/></g><path d="m347.144 244.86h32v224h-32z" fill="#0a9acd" transform="matrix(.863 .506 -.506 .863 230.271 -134.635)"/><path d="m286.291 488 6.42-42.6 27.609 16.179z" fill="#e6a98d"/><path d="m413.84 233.878h24v32h-24z" fill="#cbcbcb" transform="matrix(.506 -.863 .863 .506 -5.055 490.934)"/><path d="m426.193 217.631-8.09 13.8 27.609 16.18 8.09-13.8a16 16 0 0 0 -5.715-21.894 16 16 0 0 0 -21.894 5.714z" fill="#fbb540"/></g></svg>